<svg xmlns="http://www.w3.org/2000/svg" viewBox="0 0 512 512" role="img" aria-label="알 껍질 모자를 쓴 병아리">
  <defs>
    <radialGradient id="bodyGlow" cx="42%" cy="28%" r="72%">
      <stop offset="0" stop-color="#fff45f"/>
      <stop offset="0.62" stop-color="#ffd727"/>
      <stop offset="1" stop-color="#f3a819"/>
    </radialGradient>
    <linearGradient id="egg" x1="0" y1="0" x2="0" y2="1">
      <stop offset="0" stop-color="#fffdf5"/>
      <stop offset="0.62" stop-color="#f3ede1"/>
      <stop offset="1" stop-color="#dfdce4"/>
    </linearGradient>
    <linearGradient id="beak" x1="0" y1="0" x2="0" y2="1">
      <stop offset="0" stop-color="#ffbd28"/>
      <stop offset="1" stop-color="#e87613"/>
    </linearGradient>
    <filter id="softShadow" x="-20%" y="-20%" width="140%" height="145%">
      <feDropShadow dx="0" dy="13" stdDeviation="11" flood-color="#1a1208" flood-opacity="0.18"/>
    </filter>
  </defs>
  <g filter="url(#softShadow)">
    <path d="M368 254c34-8 62-5 72 10 12 18-1 46-29 64-25 16-56 19-73 8-15-10-15-33-2-52 8-13 19-24 32-30Z" fill="#ffd52f" stroke="#2b1609" stroke-width="13" stroke-linejoin="round"/>
    <path d="M124 274c-17-14-28-34-25-55 7-68 74-123 157-123s150 55 157 123c8 80-62 145-157 145-50 0-95-18-124-47-14-14-12-32-8-43Z" fill="url(#bodyGlow)" stroke="#2b1609" stroke-width="13" stroke-linejoin="round"/>
    <path d="M103 167C115 77 178 30 256 30s141 47 153 137c3 22 2 38-5 43-8 6-29-19-29-19l-31 29-38-35-34 30-41-39-39 34-37-33-33 33s-26 17-29 8c-3-10 5-35 10-51Z" fill="url(#egg)" stroke="#2b1609" stroke-width="13" stroke-linejoin="round"/>
    <path d="M95 303 132 340l32-35 36 38 42-36 39 38 39-38 40 39 31-35 26 28c-6 72-72 127-161 127-89 0-155-55-161-127Z" fill="url(#egg)" stroke="#2b1609" stroke-width="13" stroke-linejoin="round"/>
    <path d="M99 303 132 340l32-35 36 38 42-36 39 38 39-38 40 39 31-35" fill="none" stroke="#2b1609" stroke-width="13" stroke-linejoin="round"/>
    <ellipse cx="184" cy="220" rx="35" ry="47" fill="#070707"/>
    <ellipse cx="328" cy="220" rx="35" ry="47" fill="#070707"/>
    <circle cx="196" cy="202" r="13" fill="#fff"/>
    <circle cx="340" cy="202" r="13" fill="#fff"/>
    <ellipse cx="145" cy="264" rx="32" ry="24" fill="#ff8d83" opacity="0.86"/>
    <ellipse cx="367" cy="264" rx="32" ry="24" fill="#ff8d83" opacity="0.86"/>
    <path d="M224 262c13-25 52-25 64 0-10 16-54 16-64 0Z" fill="url(#beak)" stroke="#9a450b" stroke-width="9" stroke-linejoin="round"/>
    <path d="M226 269c15 43 45 43 60 0Z" fill="#8f2a17" stroke="#5c160e" stroke-width="7" stroke-linejoin="round"/>
    <path d="M242 292c9 10 19 10 28 0" fill="none" stroke="#ff725d" stroke-width="9" stroke-linecap="round"/>
    <g fill="#f08b14" stroke="#8a3b08" stroke-width="9" stroke-linejoin="round">
      <path d="M171 464c-20 7-35 3-42-8-8-14 10-31 33-31 14 0 25 6 30 16 4 9-4 18-21 23Z"/>
      <path d="M341 464c20 7 35 3 42-8 8-14-10-31-33-31-14 0-25 6-30 16-4 9 4 18 21 23Z"/>
    </g>
    <g fill="#d8ccb7" opacity="0.42">
      <ellipse cx="188" cy="75" rx="20" ry="10" transform="rotate(-22 188 75)"/>
      <ellipse cx="313" cy="70" rx="32" ry="16" transform="rotate(15 313 70)"/>
      <ellipse cx="355" cy="145" rx="13" ry="9" transform="rotate(25 355 145)"/>
      <ellipse cx="169" cy="388" rx="28" ry="18" transform="rotate(45 169 388)"/>
      <ellipse cx="324" cy="396" rx="34" ry="19" transform="rotate(-20 324 396)"/>
      <ellipse cx="393" cy="394" rx="13" ry="9" transform="rotate(-35 393 394)"/>
    </g>
  </g>
</svg>
