<svg xmlns="http://www.w3.org/2000/svg" viewBox="0 0 900 1200" role="img" aria-label="Quiz genre background">
  <defs>
    <linearGradient id="bg" x1="0" x2="1" y1="0" y2="1">
      <stop offset="0" stop-color="#ffd666"/>
      <stop offset="0.48" stop-color="#ff8d5a"/>
      <stop offset="1" stop-color="#5a67d8"/>
    </linearGradient>
    <filter id="shadow" x="-20%" y="-20%" width="140%" height="140%">
      <feDropShadow dx="0" dy="18" stdDeviation="10" flood-color="#1a1625" flood-opacity="0.26"/>
    </filter>
  </defs>
  <rect width="900" height="1200" fill="url(#bg)"/>
  <g opacity="0.18" fill="#fffdf2">
    <circle cx="92" cy="164" r="90"/>
    <circle cx="780" cy="270" r="128"/>
    <circle cx="710" cy="980" r="180"/>
    <circle cx="150" cy="1000" r="110"/>
  </g>
  <g filter="url(#shadow)">
    <rect x="120" y="180" width="250" height="185" rx="32" fill="#fff8e8" transform="rotate(-8 245 272)"/>
    <rect x="520" y="235" width="240" height="176" rx="32" fill="#fff8e8" transform="rotate(9 640 323)"/>
    <rect x="190" y="530" width="265" height="190" rx="34" fill="#fff8e8" transform="rotate(7 322 625)"/>
    <rect x="500" y="650" width="255" height="188" rx="34" fill="#fff8e8" transform="rotate(-10 627 744)"/>
  </g>
  <g fill="none" stroke="#172033" stroke-width="22" stroke-linecap="round" stroke-linejoin="round">
    <path d="M215 260 C220 210 300 214 300 265 C300 312 248 313 248 358" transform="rotate(-8 245 272)"/>
    <path d="M248 414 L248 418" transform="rotate(-8 245 272)"/>
    <path d="M603 325 L690 325 M646 282 L646 368" transform="rotate(9 640 323)"/>
    <path d="M275 610 L380 610 M275 665 L380 665" transform="rotate(7 322 625)"/>
    <path d="M590 715 L668 793 M668 715 L590 793" transform="rotate(-10 627 744)"/>
  </g>
  <g fill="#fff8e8" opacity="0.58">
    <path d="M85 447 l20 42 46 6 -33 32 8 46 -41 -22 -41 22 8 -46 -33 -32 46 -6z"/>
    <path d="M740 520 l16 34 37 5 -27 26 7 38 -33 -18 -33 18 7 -38 -27 -26 37 -5z"/>
    <path d="M160 830 l14 30 33 4 -24 23 6 33 -29 -16 -29 16 6 -33 -24 -23 33 -4z"/>
  </g>
</svg>
